<?xml version="1.0" encoding="UTF-8"?>
<svg width="121px" height="70px" viewBox="0 0 121 70" version="1.1" xmlns="http://www.w3.org/2000/svg" xmlns:xlink="http://www.w3.org/1999/xlink">
    <!-- Generator: Sketch 50.2 (55047) - http://www.bohemiancoding.com/sketch -->
    <title>Group</title>
    <desc>Created with Sketch.</desc>
    <defs>
        <polygon id="path-1" points="0.376083673 0.0340467532 18.6750224 0.0340467532 18.6750224 29 0.376083673 29"></polygon>
        <polygon id="path-3" points="0.330638776 0.0340467532 18.6293061 0.0340467532 18.6293061 29 0.330638776 29"></polygon>
        <polygon id="path-5" points="0 0.157783784 40.7331204 0.157783784 40.7331204 70 0 70"></polygon>
    </defs>
    <g id="Page-1" stroke="none" stroke-width="1" fill="none" fill-rule="evenodd">
        <g id="Group">
            <path d="M69.1027955,37 C66.9810558,37 65.0305032,36.2537901 63.5,35.0094786 C61.9691198,36.2537901 60.0185672,37 57.8968275,37 C52.9912235,37 49,33.0087765 49,28.1027955 L49,11.294409 C49,9.47507476 50.4750748,8 52.294409,8 C54.1137433,8 55.588441,9.47507476 55.588441,11.294409 L55.588441,28.1027955 C55.588441,29.3757639 56.6238591,30.411559 57.8968275,30.411559 C59.1697959,30.411559 60.205591,29.3757639 60.205591,28.1027955 L60.205591,11.294409 C60.205591,9.47507476 61.6802886,8 63.5,8 C65.3193343,8 66.794032,9.47507476 66.794032,11.294409 L66.794032,28.1027955 C66.794032,29.3757639 67.8298271,30.411559 69.1027955,30.411559 C70.3757639,30.411559 71.4111819,29.3757639 71.4111819,28.1027955 L71.4111819,11.294409 C71.4111819,9.47507476 72.8862567,8 74.7052139,8 C76.5249252,8 78,9.47507476 78,11.294409 L78,28.1027955 C78,33.0087765 74.0087765,37 69.1027955,37" id="Fill-1" fill="#000000"></path>
            <g id="Group-5" transform="translate(81.000000, 41.000000)">
                <mask id="mask-2" fill="white">
                    <use xlink:href="#path-1"></use>
                </mask>
                <g id="Clip-4"></g>
                <path d="M9.52555306,6.61478701 C8.21649184,6.61478701 7.15171633,7.64937143 7.15171633,8.92085195 L7.15171633,20.1133455 C7.15171633,21.384826 8.21649184,22.4190338 9.52555306,22.4190338 C10.8346143,22.4190338 11.8997776,21.384826 11.8997776,20.1133455 L11.8997776,8.92085195 C11.8997776,7.64937143 10.8346143,6.61478701 9.52555306,6.61478701 M9.52555306,29.0001506 C4.48047143,29.0001506 0.376083673,25.0135922 0.376083673,20.1133455 L0.376083673,8.92085195 C0.376083673,4.02060519 4.48047143,0.0340467532 9.52555306,0.0340467532 C14.5706347,0.0340467532 18.6750224,4.02060519 18.6750224,8.92085195 L18.6750224,20.1133455 C18.6750224,25.0135922 14.5706347,29.0001506 9.52555306,29.0001506" id="Fill-3" fill="#000000" mask="url(#mask-2)"></path>
            </g>
            <g id="Group-8" transform="translate(102.000000, 41.000000)">
                <mask id="mask-4" fill="white">
                    <use xlink:href="#path-3"></use>
                </mask>
                <g id="Clip-7"></g>
                <path d="M9.48010816,6.61478701 C8.17104694,6.61478701 7.10588367,7.64937143 7.10588367,8.92085195 L7.10588367,20.1133455 C7.10588367,21.384826 8.17104694,22.4190338 9.48010816,22.4190338 C10.7891694,22.4190338 11.8539449,21.384826 11.8539449,20.1133455 L11.8539449,8.92085195 C11.8539449,7.64937143 10.7891694,6.61478701 9.48010816,6.61478701 M9.48010816,29.0001506 C4.43502653,29.0001506 0.330638776,25.0135922 0.330638776,20.1133455 L0.330638776,8.92085195 C0.330638776,4.02060519 4.43502653,0.0340467532 9.48010816,0.0340467532 C14.5251898,0.0340467532 18.6295776,4.02060519 18.6295776,8.92085195 L18.6295776,20.1133455 C18.6295776,25.0135922 14.5251898,29.0001506 9.48010816,29.0001506" id="Fill-6" fill="#000000" mask="url(#mask-4)"></path>
            </g>
            <path d="M88.6649432,19.2057366 L93.3354382,19.2057366 L93.3354382,16.8969431 C93.3354382,15.6239582 92.2876759,14.5885267 91,14.5885267 C89.7123241,14.5885267 88.6649432,15.6239582 88.6649432,16.8969431 L88.6649432,19.2057366 Z M91,37 C86.0373368,37 82,33.0087246 82,28.1030569 L82,16.8969431 C82,11.9912754 86.0373368,8 91,8 C95.9626632,8 100,11.9912754 100,16.8969431 L100,22.5001885 C100,24.3195465 98.5082641,25.7942634 96.6675284,25.7942634 L88.6649432,25.7942634 L88.6649432,28.1030569 C88.6649432,29.3760418 89.7123241,30.4114733 91,30.4114733 C91.6240041,30.4114733 92.2102475,30.1716574 92.6511697,29.7353886 C93.9525767,28.4488291 96.0625954,28.4488291 97.3640024,29.7353886 C98.6654094,31.0215709 98.6654094,33.1075167 97.3640024,34.3940761 C95.6643923,36.0746727 93.4040939,37 91,37 Z" id="Fill-9" fill="#000000"></path>
            <path d="M109.664703,19.2057366 L114.335297,19.2057366 L114.335297,16.8969431 C114.335297,15.6239582 113.287512,14.5885267 111.999809,14.5885267 C110.712488,14.5885267 109.664703,15.6239582 109.664703,16.8969431 L109.664703,19.2057366 Z M111.999809,37 C107.037422,37 103,33.0087246 103,28.1030569 L103,16.8969431 C103,11.9912754 107.037422,8 111.999809,8 C116.962578,8 121,11.9912754 121,16.8969431 L121,22.5001885 C121,24.3195465 119.508233,25.7942634 117.667458,25.7942634 L109.664703,25.7942634 L109.664703,28.1030569 C109.664703,29.3760418 110.712488,30.4114733 111.999809,30.4114733 C112.623827,30.4114733 113.210082,30.1716574 113.651014,29.7353886 C114.952449,28.4488291 117.062512,28.4488291 118.363947,29.7353886 C119.665381,31.0215709 119.665381,33.1075167 118.364328,34.3940761 C116.6643,36.0746727 114.404336,37 111.999809,37 Z" id="Fill-11" fill="#000000"></path>
            <path d="M55.5887324,63.411559 L63.4998115,63.411559 C67.8623864,63.411559 71.4112676,59.8626316 71.4112676,55.5003771 C71.4112676,51.1377454 67.8623864,47.5888181 63.4998115,47.5888181 L55.5887324,47.5888181 L55.5887324,63.411559 Z M63.4998115,70 L52.2947433,70 C50.4750556,70 49,68.5253023 49,66.705968 L49,44.294409 C49,42.4750748 50.4750556,41 52.2947433,41 L63.4998115,41 C67.3729636,41 71.0142242,42.5082564 73.7528052,45.24725 C76.4917632,47.9858666 78,51.6271746 78,55.5003771 C78,59.3732024 76.4917632,63.0145105 73.7528052,65.753127 C71.0142242,68.4917436 67.3729636,70 63.4998115,70 Z" id="Fill-13" fill="#000000"></path>
            <g id="Group-17">
                <mask id="mask-6" fill="white">
                    <use xlink:href="#path-5"></use>
                </mask>
                <g id="Clip-16"></g>
                <path d="M20.2069259,60.1841081 L9.84835185,60.1841081 L9.84835185,57.3091892 C9.84835185,55.8176216 11.0616481,54.6087027 12.5581481,54.6087027 L20.2638704,54.6087027 C22.9474722,54.6087027 25.2153796,52.5117297 25.2890278,49.8384865 C25.3653333,47.064973 23.1319722,44.7928108 20.36675,44.7928108 L9.84835185,44.7928108 L9.84835185,39.217027 L20.36675,39.217027 C26.2206389,39.217027 30.9728426,44.0084324 30.8836296,49.8634595 C30.7955556,55.6155676 25.9788148,60.1841081 20.2069259,60.1841081 M35.7436481,7.77 C33.0376481,7.80481081 30.8847685,10.0535135 30.8847685,12.7505946 L30.8847685,27.9640541 C30.8847685,29.862 29.0018056,31.206 27.2072963,30.5699459 C27.1883148,30.5631351 27.1693333,30.5563243 27.1499722,30.5498919 C26.0384167,30.1594054 25.2909259,29.1184865 25.2909259,27.944 L25.2909259,5.13875676 C25.2909259,2.44167568 23.1380463,0.193351351 20.4320463,0.158162162 C17.6823889,0.122594595 15.4421944,2.33345946 15.4421944,5.06572973 L15.4421944,26.6136216 C15.4421944,28.1532432 14.1901759,29.4011351 12.645463,29.4011351 C11.10075,29.4011351 9.84873148,28.1532432 9.84873148,26.6136216 L9.84873148,9.41443243 C9.84873148,6.71697297 7.69585185,4.46864865 4.98947222,4.43383784 C2.24019444,4.39827027 0,6.60913514 0,9.34102703 L0,34.3056757 L0,34.3090811 L0,65.0920541 C0,67.8027568 2.20450926,70 4.92417593,70 L20.36675,70 C25.8068426,70 30.921213,67.8882703 34.7676204,64.0545405 C38.6144074,60.2204324 40.7331204,55.1229189 40.7331204,49.7007568 L40.7331204,49.7003784 L40.7331204,12.6775676 C40.7331204,9.9452973 38.4933056,7.73443243 35.7436481,7.77" id="Fill-15" fill="#A6CE39" opacity="0.860000014" mask="url(#mask-6)"></path>
            </g>
        </g>
    </g>
</svg>